<?xml version="1.0" encoding="utf-8"?>
<!DOCTYPE svg PUBLIC "-//W3C//DTD SVG 1.0//EN" "http://www.w3.org/TR/2001/REC-SVG-20010904/DTD/svg10.dtd">
<svg version="1.0" xmlns="http://www.w3.org/2000/svg" width="103px" height="326px" viewBox="0 0 103 326" preserveAspectRatio="xMidYMid meet">
 <g fill="#000000">
  <path d="M33.80 310.16 c-0.14 -0.04 -0.57 -0.13 -0.97 -0.18 -1.04 -0.18 -1.54 -0.77 -1.54 -1.88 0 -0.50 0.09 -1.09 0.20 -1.31 0.11 -0.21 1.50 -1.72 3.11 -3.34 1.59 -1.63 3.15 -3.29 3.43 -3.70 l0.52 -0.73 -0.02 -4.45 c-0.04 -3.77 -0.09 -4.72 -0.43 -6.40 -0.59 -2.99 -1.29 -5.45 -3.06 -11.02 -3.67 -11.44 -4.47 -15.52 -4.47 -22.69 0 -4.60 0.39 -7.99 1.70 -14.91 1.13 -5.87 1.13 -6.04 0.38 -13.54 -0.77 -7.62 -1.18 -9.87 -2.97 -16.17 -4.72 -16.51 -7.17 -29.18 -7.89 -40.77 -0.23 -3.76 -0.13 -13.41 0.20 -16.99 0.50 -5.79 1.14 -8.44 3.13 -12.88 0.79 -1.72 1.18 -2.90 1.32 -3.77 0.29 -1.93 0.82 -3.47 2.27 -6.58 2.77 -5.90 2.79 -6.46 0.63 -14.38 -0.66 -2.43 -1.39 -5.17 -1.63 -6.10 l-0.41 -1.68 -0.43 1.14 c-0.70 1.84 -1.82 5.70 -2.31 7.89 -0.38 1.73 -0.46 2.77 -0.61 7.30 -0.34 10.50 -1.04 14 -4.65 23.69 -1.48 3.99 -2.06 6.22 -2.41 9.37 -0.34 3.13 -0.72 10.68 -0.55 11.46 0.05 0.38 0.64 1.34 1.47 2.41 1.90 2.47 2.43 3.72 3.09 7.01 0.30 1.50 0.86 3.54 1.22 4.56 0.54 1.47 0.68 2.11 0.68 3.11 0 1.48 -0.29 1.95 -1.27 2.15 -1.79 0.34 -3.20 -0.50 -4.77 -2.81 -0.57 -0.82 -1.02 -1.45 -1.02 -1.39 0.02 0.98 0.55 2.59 1.68 4.95 1.90 4.01 2.15 4.79 2.16 6.76 0 2.18 -0.18 2.40 -1.95 2.40 -1.16 0 -1.36 -0.05 -2.25 -0.66 -0.54 -0.36 -2.04 -1.70 -3.33 -2.99 -2.27 -2.25 -2.38 -2.41 -3.34 -4.40 -1.73 -3.59 -1.65 -3.09 -1.59 -9.39 0.04 -4.88 0 -5.87 -0.34 -8.19 -0.41 -2.91 -0.41 -4.20 0.04 -11.86 0.18 -3.29 0.18 -5.15 -0.04 -11.09 -0.30 -8.55 -0.30 -15.54 0 -18.22 0.43 -3.79 1.16 -6.46 3.15 -11.27 1.36 -3.31 1.65 -4.81 1.88 -9.75 0.20 -4.54 0.39 -6.63 0.89 -10.37 0.20 -1.43 0.64 -5.01 0.98 -7.96 0.73 -6.22 1.11 -8.30 2.07 -11.27 0.97 -2.93 2.09 -5.19 3.22 -6.42 1.18 -1.31 2.91 -2.15 6.60 -3.25 3.15 -0.93 4.88 -1.70 7.33 -3.20 1.79 -1.11 5.58 -3.92 6.13 -4.51 0.30 -0.36 0.29 -0.36 -0.73 -0.46 -0.57 -0.07 -1.72 -0.34 -2.56 -0.63 -1.38 -0.48 -1.65 -0.52 -3.42 -0.43 -2.09 0.09 -2.86 -0.09 -3.74 -0.80 -0.88 -0.73 -1.29 -1.75 -1.38 -3.36 -0.11 -1.88 0.23 -3.17 1.48 -5.81 1.20 -2.50 1.22 -2.84 0.32 -5.58 -0.64 -1.95 -0.68 -2.11 -0.68 -4.61 0 -2.50 0.02 -2.63 0.55 -3.88 0.30 -0.70 1.23 -2.43 2.07 -3.84 0.84 -1.39 2.06 -3.52 2.74 -4.70 3.29 -5.79 5.76 -8.60 8.85 -10.09 1.31 -0.63 1.39 -0.64 3.42 -0.64 1.79 0 2.18 0.05 2.97 0.41 l0.89 0.43 0.79 -0.41 c1.16 -0.61 3.81 -0.70 5.47 -0.20 2.81 0.86 5.85 3.77 8.49 8.17 3.83 6.33 6.12 10.68 6.51 12.39 0.45 1.90 0.27 4.51 -0.46 6.74 -0.91 2.72 -0.86 3.43 0.39 6.08 1.23 2.63 1.39 3.18 1.39 5.08 0 1.84 -0.23 2.66 -1.02 3.58 -0.82 0.97 -1.48 1.14 -3.97 1.07 -1.86 -0.05 -2.22 -0.02 -3.54 0.41 -0.79 0.27 -1.86 0.54 -2.36 0.61 -0.50 0.07 -0.91 0.18 -0.91 0.25 0 0.25 1.91 1.91 3.36 2.91 2 1.41 5.19 3.27 6.44 3.79 0.59 0.23 2.31 0.80 3.81 1.27 3.20 0.97 4.35 1.45 5.54 2.32 1.88 1.38 3.58 4.81 4.81 9.73 0.72 2.86 1.02 4.74 1.34 8.58 0.16 1.82 0.57 5.31 0.91 7.78 0.59 4.24 0.73 5.78 1.14 12.79 0.20 3.58 0.46 4.63 2.11 8.78 1.39 3.47 2.04 5.56 2.45 7.85 0.45 2.49 0.63 8.05 0.45 14.16 -0.38 12.73 -0.39 14.75 -0.20 18.02 0.45 7.12 0.45 8.28 0.02 11.18 -0.36 2.43 -0.39 2.99 -0.25 6.08 0.27 5.81 0.21 6.88 -0.45 8.85 -0.32 0.93 -0.95 2.43 -1.41 3.31 -0.73 1.39 -1.16 1.93 -3.25 4.02 -1.32 1.34 -2.81 2.68 -3.29 3 -0.77 0.50 -1.04 0.57 -2.07 0.57 -1.06 0 -1.23 -0.05 -1.63 -0.46 -0.39 -0.41 -0.43 -0.61 -0.41 -2 0.02 -1.90 0.34 -2.91 2.04 -6.38 1.22 -2.49 1.86 -4.29 1.75 -4.85 -0.04 -0.20 -0.27 0.04 -0.68 0.66 -0.97 1.52 -2.32 2.79 -3.24 3.02 -1.02 0.29 -2.06 0.13 -2.59 -0.38 -0.68 -0.64 -0.61 -2.41 0.20 -4.83 0.36 -1.02 0.91 -3.15 1.23 -4.72 0.70 -3.36 1.13 -4.33 2.95 -6.63 0.70 -0.88 1.36 -1.88 1.45 -2.24 0.23 -0.82 -0.07 -8.91 -0.43 -11.78 -0.48 -3.72 -0.52 -3.88 -3.93 -13.86 -2.18 -6.40 -2.72 -9.41 -2.97 -16.72 -0.09 -2.61 -0.21 -5.26 -0.27 -5.90 -0.30 -3.11 -1.04 -6.42 -2.36 -10.46 l-0.80 -2.49 -1.23 4.54 c-2.27 8.37 -2.20 8.08 -2.22 10.55 0 2.61 0.11 3.02 1.77 6.62 1.70 3.63 2.11 4.83 2.43 6.88 0.13 0.79 0.61 2.24 1.34 3.93 1.70 4.01 2.49 6.87 2.95 10.60 0.61 5.15 0.66 16.83 0.11 22.92 -1 10.64 -3.61 23.35 -7.71 37.55 -1.91 6.67 -2.20 8.26 -3.15 18.29 -0.46 4.85 -0.45 5.08 0.82 11.78 2.20 11.46 2.13 18.70 -0.25 27.86 -0.68 2.66 -1.22 4.42 -3.49 11.53 -2.34 7.33 -2.68 9.28 -2.66 14.88 0.02 2.79 0.09 4.45 0.23 4.69 0.11 0.21 1.59 1.82 3.29 3.59 1.72 1.77 3.24 3.49 3.40 3.83 0.36 0.77 0.38 2.06 0.02 2.56 -0.55 0.79 -1.23 0.86 -7.33 0.84 -6.15 -0.02 -8.96 -0.27 -10.25 -0.89 -0.64 -0.34 -0.70 -0.34 -1.22 -0.04 -1.07 0.63 -5.69 1.04 -11.25 1.02 -2.16 -0.02 -4.06 -0.05 -4.20 -0.07z m11.18 -3.13 c0.89 -0.11 1.79 -0.27 2.02 -0.36 0.50 -0.21 0.50 -0.68 0.04 -2.88 -0.57 -2.63 -0.63 -4.43 -0.27 -7.21 l0.34 -2.45 -0.75 -2.99 c-1.23 -4.92 -1.38 -6.21 -1.38 -12.02 0.02 -5.47 0.09 -6.47 1.25 -14.66 1.25 -8.87 1.25 -10.50 0.09 -17.26 -0.73 -4.20 -0.73 -4.36 -0.66 -7.51 0.11 -3.67 0.27 -4.70 1.59 -9.39 l0.91 -3.31 0.09 -6.17 c0.07 -6.94 -0.07 -9.51 -0.86 -14.99 -0.75 -5.10 -0.88 -9.26 -0.43 -14.97 0.36 -4.79 0.41 -10.12 0.18 -16.33 l-0.16 -4.18 -0.84 -1 c-0.46 -0.57 -2.15 -2.72 -3.72 -4.81 -2.83 -3.70 -2.90 -3.83 -2.90 -4.67 0 -0.46 0.09 -0.95 0.21 -1.07 0.36 -0.36 1.98 -0.27 2.41 0.14 0.21 0.20 1.79 2.18 3.50 4.42 1.72 2.24 3.34 4.27 3.59 4.51 l0.46 0.45 0.50 -0.38 c0.27 -0.20 1.23 -1.31 2.15 -2.49 0.91 -1.16 2.50 -3.20 3.52 -4.49 l1.88 -2.38 1.04 0 c0.57 0 1.13 0.09 1.25 0.21 0.13 0.13 0.21 0.59 0.21 1.06 0 0.91 0.25 0.55 -5.76 8.14 l-1.73 2.20 -0.30 4.26 c-0.38 5.58 -0.38 10.05 0.04 14.45 0.21 2.43 0.32 5.10 0.32 8.32 0 4.51 -0.04 4.95 -0.66 9.12 -0.73 4.94 -1.02 8.69 -1.02 13.16 0 5.04 0.23 7.05 1.25 10.82 1.39 5.08 1.66 6.96 1.56 10.71 -0.07 2.59 -0.20 3.68 -0.73 6.47 -1.22 6.31 -1.20 7.94 0.07 16.77 1.14 7.89 1.43 10.91 1.43 15.11 0 5.11 -0.29 7.33 -1.56 11.98 -0.54 1.97 -0.61 2.49 -0.52 3.49 0.07 0.64 0.16 2.45 0.21 4.02 0.09 2.65 0.07 3 -0.36 4.86 -0.52 2.22 -0.55 2.66 -0.27 2.84 0.54 0.32 3.72 0.63 7.76 0.72 l4.47 0.13 -2.79 -2.84 c-1.73 -1.79 -2.91 -3.17 -3.15 -3.65 -0.36 -0.75 -0.38 -1.09 -0.39 -5.78 -0.02 -6.92 0.38 -9.35 2.77 -16.86 3 -9.41 4.02 -13.16 4.74 -17.42 0.34 -2 0.41 -3.09 0.41 -6.35 0 -4.29 -0.21 -6.35 -1.41 -12.70 -0.34 -1.77 -0.73 -3.93 -0.88 -4.83 -0.36 -2.04 -0.38 -6.26 -0.04 -9.21 0.14 -1.23 0.36 -3.27 0.46 -4.56 0.46 -5.47 1.14 -8.91 2.93 -15.02 2.40 -8.23 5.33 -21.10 6.44 -28.34 1.07 -6.96 1.27 -9.66 1.27 -18.15 0 -11.69 -0.43 -14.48 -3.17 -20.90 -0.66 -1.56 -1.16 -3.02 -1.32 -3.93 -0.39 -2.15 -0.86 -3.47 -2.34 -6.60 -1.84 -3.92 -2.07 -4.86 -2.07 -8.44 0 -3.33 0 -3.36 2.18 -11.43 0.80 -2.95 1.41 -5.38 1.39 -5.42 -0.04 -0.04 -0.43 0.11 -0.88 0.30 -1.48 0.64 -2.83 0.89 -4.97 0.89 -2.16 0 -3.72 -0.30 -4.33 -0.86 -0.46 -0.39 -0.45 -1.84 0.04 -2.27 0.39 -0.36 1.11 -0.32 3.22 0.16 1 0.23 1.32 0.23 2.34 0.02 2.24 -0.46 4.60 -2.02 5.58 -3.72 0.54 -0.89 0.97 -2.32 1.11 -3.70 0.11 -0.93 -0.14 -3.25 -0.64 -5.94 -0.16 -0.82 -0.18 -1.36 -0.05 -1.70 0.16 -0.46 0.25 -0.50 1.27 -0.55 1.34 -0.07 1.36 -0.04 1.86 2.52 0.68 3.49 0.63 7.24 -0.13 9.55 l-0.30 0.93 1 2.83 c3.08 8.69 4.06 13.32 4.06 19.46 0.02 7.72 0.93 12.46 4.02 20.94 2.74 7.49 3.33 11 3.36 20.46 0.04 5.88 0.11 5.53 -1.86 7.87 -1.48 1.77 -2.04 3.02 -2.58 5.79 -0.23 1.25 -0.48 2.45 -0.55 2.66 -0.05 0.21 0.36 -0.32 0.91 -1.22 1.54 -2.43 1.75 -2.61 2.95 -2.56 0.84 0.05 1 0.11 1.20 0.50 0.32 0.70 0.59 3.06 0.59 5.31 0 1.81 -0.07 2.25 -0.52 3.61 -0.29 0.84 -1.02 2.49 -1.61 3.67 -0.61 1.16 -1.09 2.20 -1.09 2.31 0 0.23 1.79 -1.45 3 -2.83 1.06 -1.18 1.73 -2.41 2.65 -4.76 0.70 -1.79 0.66 -1.36 0.50 -7.67 -0.11 -4.49 -0.09 -5.13 0.27 -7.37 0.36 -2.40 0.38 -2.50 0.09 -6.44 -0.29 -4.04 -0.29 -9.75 0.04 -24.57 0.20 -8.51 -0.16 -10.73 -2.79 -17.43 -1.63 -4.15 -1.93 -5.36 -2.15 -8.65 -0.09 -1.47 -0.25 -4.04 -0.36 -5.72 -0.11 -1.66 -0.46 -5.01 -0.80 -7.42 -0.34 -2.41 -0.73 -5.83 -0.89 -7.60 -0.48 -5.69 -1.38 -9.84 -2.83 -13.29 -1.18 -2.77 -2.09 -3.95 -3.68 -4.76 -0.46 -0.25 -2.22 -0.86 -3.88 -1.36 -1.95 -0.57 -3.77 -1.27 -5.17 -1.95 -4.17 -2.06 -9.10 -5.74 -10.17 -7.58 -0.64 -1.11 -0.86 -2.11 -0.98 -4.65 l-0.11 -2.27 -0.98 0.73 c-0.54 0.41 -1.50 1 -2.15 1.31 -1.11 0.52 -1.27 0.55 -3.31 0.55 -2.04 0 -2.20 -0.04 -3.31 -0.55 -0.64 -0.30 -1.61 -0.89 -2.15 -1.31 l-0.98 -0.75 -0.11 2.29 c-0.13 2.63 -0.27 3.47 -0.72 4.35 -0.64 1.27 -2.81 3.18 -6.13 5.42 -3.06 2.04 -5.02 3.02 -8.08 3.97 -6.22 1.97 -6.88 2.40 -8.40 5.45 -1.66 3.38 -2.49 6.94 -3.38 14.66 -0.34 3 -0.75 6.29 -0.89 7.33 -0.50 3.52 -0.63 4.92 -0.89 10.01 -0.32 6.19 -0.50 7.06 -2.32 11.64 -1.45 3.63 -2.25 6.38 -2.63 9.01 -0.27 1.91 -0.30 9.37 -0.07 20.83 0.14 6.85 0.11 8.53 -0.14 12.12 -0.32 4.15 -0.32 4.15 0.09 6.88 0.36 2.50 0.38 3.13 0.27 7.94 l-0.11 5.22 0.46 1.31 c0.98 2.77 1.97 4.33 3.86 6.26 0.98 0.98 1.82 1.73 1.88 1.68 0.05 -0.05 -0.52 -1.36 -1.27 -2.91 -1.91 -3.97 -2.13 -5.20 -1.70 -9.69 0.27 -2.86 0.27 -2.88 1.57 -2.88 0.97 0 1.09 0.05 1.57 0.59 0.29 0.32 0.91 1.22 1.39 1.97 0.48 0.75 0.88 1.36 0.91 1.32 0.05 -0.05 -0.72 -3.74 -1 -4.77 -0.32 -1.20 -0.72 -1.90 -2.31 -4.01 -0.88 -1.16 -1.48 -2.16 -1.57 -2.58 -0.21 -0.97 -0.14 -8.24 0.11 -11.57 0.41 -5.49 0.89 -7.78 2.63 -12.37 3.49 -9.26 4.54 -14.34 4.54 -21.80 0 -6.96 0.77 -10.87 3.77 -19.21 l1.38 -3.86 -0.38 -1.06 c-0.30 -0.88 -0.39 -1.61 -0.45 -4.01 -0.11 -4.02 0.41 -7.19 1.25 -7.80 0.54 -0.36 1.65 -0.34 2.02 0.04 0.36 0.36 0.30 1.75 -0.16 3.90 -0.88 4.01 -0.09 7.31 2.25 9.48 1.77 1.65 4.45 2.59 6.21 2.22 1.43 -0.32 3.22 -0.41 3.50 -0.16 0.18 0.14 0.27 0.54 0.27 1.07 0 0.72 -0.07 0.93 -0.45 1.23 -0.66 0.50 -1.97 0.73 -4.26 0.73 -2.22 0 -3.54 -0.27 -4.97 -1 -0.80 -0.39 -0.89 -0.41 -0.80 -0.13 0.05 0.18 0.18 0.70 0.29 1.16 0.09 0.46 0.75 2.91 1.43 5.45 1.73 6.33 1.97 7.58 1.97 10.37 0 3 -0.32 4.26 -1.98 7.80 -1.57 3.33 -2.06 4.70 -2.50 7.01 -0.25 1.25 -0.61 2.34 -1.23 3.67 -2.11 4.51 -2.79 7.44 -3.22 13.73 -0.27 4.04 -0.21 12.70 0.09 16.54 0.84 10.28 2.97 20.89 7.37 36.60 2 7.19 2.43 9.39 3.13 15.90 0.46 4.43 0.57 6.21 0.57 9.32 0 3.68 -0.04 3.99 -0.68 7.42 -2.18 11.59 -2.34 15.22 -1.07 22.26 0.70 3.84 1.36 6.21 4.17 15.02 1.47 4.56 2.36 8.14 2.79 11 0.39 2.63 0.52 10.96 0.18 11.95 -0.38 1.11 -1.11 2.04 -3.67 4.67 l-2.41 2.49 4.02 -0.11 c2.22 -0.05 4.76 -0.20 5.63 -0.30z m5.06 -7.51 c0 -0.64 -0.05 -1.52 -0.13 -1.97 l-0.13 -0.80 -0.16 1.34 c-0.09 0.73 -0.14 1.43 -0.14 1.52 0.02 0.11 0.09 0.59 0.16 1.07 0.11 0.77 0.14 0.82 0.27 0.45 0.07 -0.25 0.13 -0.97 0.13 -1.61z m0.66 -11.02 c1.56 -6.01 1.52 -10.17 -0.25 -22.69 l-0.66 -4.65 -0.66 4.74 c-1.18 8.40 -1.27 9.32 -1.27 13.50 0.02 4.35 0.25 6.15 1.36 10.34 0.50 1.90 0.59 2.09 0.72 1.63 0.09 -0.29 0.43 -1.57 0.77 -2.86z m0.20 -45.49 c0.38 -2.16 0.25 -4.58 -0.38 -7.42 -0.70 -3.06 -0.68 -3.06 -1.13 -1.23 -0.61 2.47 -0.97 5.22 -0.88 6.69 0.04 0.73 0.34 2.84 0.66 4.70 l0.61 3.34 0.41 -2.18 c0.21 -1.22 0.54 -2.97 0.70 -3.90z m-0.98 -47.67 c-0.14 -2.24 -0.14 -2.20 -0.14 1.45 0 2.91 0.02 3.43 0.14 2.31 0.07 -0.80 0.07 -2.49 0 -3.76z m-9.50 -139.53 l0 -3.04 -0.64 -1.09 c-0.36 -0.59 -0.86 -1.59 -1.09 -2.20 -0.23 -0.61 -0.38 -0.91 -0.32 -0.66 0.05 0.25 0.14 1.34 0.21 2.41 0.13 2.50 -0.14 4.24 -0.93 5.74 l-0.59 1.11 0.75 0.20 c0.93 0.25 2.09 0.52 2.40 0.54 0.16 0.02 0.21 -0.70 0.21 -3z m20.71 2.68 c0.73 -0.20 1.34 -0.38 1.38 -0.41 0.04 -0.04 -0.20 -0.59 -0.54 -1.25 -0.77 -1.56 -1.06 -3.31 -0.93 -5.60 0.07 -0.98 0.16 -2.07 0.21 -2.41 0.07 -0.39 -0.04 -0.21 -0.25 0.45 -0.20 0.59 -0.73 1.70 -1.16 2.47 l-0.80 1.39 0.11 2.86 c0.13 3.25 -0.05 3.02 1.98 2.50z m7.69 -1.14 c0.13 -0.11 0.36 -0.43 0.52 -0.72 0.39 -0.77 0.18 -1.79 -0.84 -3.86 -1.18 -2.41 -1.43 -3.34 -1.43 -5.31 0 -1.23 0.11 -2 0.45 -3.13 1 -3.31 1.06 -3.70 0.84 -4.79 -0.13 -0.55 -0.54 -1.66 -0.91 -2.47 -0.86 -1.77 -5.02 -8.99 -6.42 -11.14 -1.41 -2.15 -4.08 -4.79 -5.61 -5.54 -1.52 -0.73 -2.32 -0.68 -3.83 0.25 -1.47 0.89 -2.20 0.88 -3.77 -0.07 -1.47 -0.88 -2.02 -0.89 -3.59 -0.14 -0.88 0.43 -1.65 1.04 -2.81 2.20 -1.82 1.81 -2.83 3.22 -4.83 6.71 -0.75 1.32 -2.06 3.56 -2.88 4.95 -2.84 4.77 -2.99 5.40 -1.95 8.64 0.55 1.73 0.68 2.40 0.75 4.13 0.11 2.36 -0.04 3 -1.20 5.35 -1.39 2.81 -1.50 3.81 -0.54 4.74 0.45 0.43 0.63 0.48 1.25 0.39 1.47 -0.20 2.91 -1.73 3.47 -3.68 0.38 -1.27 0.36 -1.88 -0.07 -4.33 -0.48 -2.79 -0.48 -5.88 0 -7.28 0.43 -1.22 1.56 -2.95 3.02 -4.65 2.81 -3.25 3.86 -5.10 4.94 -8.53 0.79 -2.52 1.11 -3.20 1.88 -3.93 0.52 -0.50 0.68 -0.54 2.04 -0.59 1.07 -0.05 1.63 0 2 0.20 0.43 0.23 0.57 0.23 1.13 -0.02 0.36 -0.14 1.16 -0.29 1.81 -0.29 2.16 -0.04 2.68 0.57 4.11 4.72 1.14 3.29 2.02 4.90 3.90 7.22 3.88 4.81 4.33 5.76 4.33 9.21 0 1.27 -0.14 2.86 -0.36 4.11 -0.43 2.43 -0.43 2.68 -0.09 4.04 0.70 2.72 3.31 4.72 4.70 3.61z m-17.20 -2.09 c2.22 -1.11 4.69 -3.63 5.99 -6.12 0.86 -1.68 1.14 -3.06 1.32 -6.60 l0.13 -2.45 -1.02 -1.22 c-1.27 -1.48 -2.77 -3.77 -3.34 -5.08 -0.25 -0.54 -0.75 -1.91 -1.13 -3.04 -0.66 -2 -1.25 -3.40 -1.45 -3.40 -0.04 0 -0.39 0.16 -0.79 0.36 -0.93 0.46 -2.22 0.46 -3.11 -0.02 l-0.70 -0.38 -0.30 0.41 c-0.18 0.21 -0.64 1.48 -1.07 2.83 -0.98 3.18 -1.98 5.08 -3.97 7.53 l-1.61 2.02 0.13 2.61 c0.14 3.06 0.41 4.61 1.07 6.01 1.59 3.34 5.83 7.06 8.05 7.06 0.46 0 1.14 -0.20 1.81 -0.54z"/>
  <path d="M48.76 135.22 c-0.21 -0.23 -0.30 -0.66 -0.30 -1.34 0 -0.82 0.07 -1.04 0.39 -1.27 0.52 -0.38 1.82 -0.38 2.18 0 0.59 0.59 0.59 2.27 -0.02 2.70 -0.46 0.36 -1.91 0.29 -2.25 -0.09z"/>
 </g>
 <g fill="#ffffff">
  <path d="M0 163.08 l0 -163.08 51.50 0 51.50 0 0 163.08 0 163.08 -51.50 0 -51.50 0 0 -163.08z m45.60 146.27 c2.38 -0.29 3.04 -0.48 3.67 -1.14 l0.54 -0.57 0.41 0.48 c0.89 1.09 3.83 1.50 10.85 1.50 4.65 0 5.06 -0.02 5.72 -0.36 0.93 -0.46 1.14 -1.06 0.72 -1.93 -0.16 -0.36 -1.70 -2.11 -3.42 -3.88 -1.70 -1.77 -3.22 -3.45 -3.34 -3.72 -0.38 -0.77 -0.29 -9.44 0.13 -11.64 0.45 -2.41 1.18 -5.19 2.36 -8.87 2.36 -7.40 2.81 -8.91 3.54 -11.80 2.24 -8.74 2.32 -15.16 0.38 -25.57 -1.50 -7.96 -1.54 -8.51 -0.98 -14.13 1 -10.07 1.23 -11.36 3.13 -17.97 4.09 -14.22 6.72 -26.98 7.69 -37.55 0.57 -6.12 0.52 -16.72 -0.09 -21.85 -0.46 -3.74 -1.25 -6.60 -2.95 -10.60 -0.73 -1.70 -1.22 -3.15 -1.34 -3.93 -0.32 -2.06 -0.73 -3.25 -2.43 -6.88 -1.72 -3.74 -1.77 -3.92 -1.75 -7.24 0 -2.70 0.04 -2.99 0.64 -5.19 0.34 -1.27 1.16 -4.38 1.84 -6.88 0.66 -2.50 1.27 -4.67 1.32 -4.79 0.16 -0.29 2.11 5.45 2.77 8.10 0.93 3.74 1.13 5.51 1.36 12.07 0.25 7.31 0.79 10.32 2.97 16.72 3.40 9.92 3.45 10.12 3.92 13.77 0.38 2.90 0.70 12.02 0.46 12.89 -0.11 0.39 -0.75 1.41 -1.47 2.29 -1.82 2.31 -2.25 3.27 -2.95 6.63 -0.32 1.57 -0.88 3.70 -1.23 4.72 -0.77 2.29 -0.80 3.18 -0.18 3.77 1.31 1.23 3.50 -0.34 5.47 -3.88 0.41 -0.72 0.80 -1.34 0.89 -1.41 0.29 -0.16 0.18 3.36 -0.13 4.42 -0.16 0.54 -0.84 2.09 -1.50 3.47 -1.50 3.06 -2 4.52 -2.04 5.85 -0.02 1.29 0.48 1.93 1.50 1.93 0.98 0 2.09 -0.82 4.83 -3.58 2.09 -2.09 2.52 -2.63 3.25 -4.02 0.46 -0.88 1.09 -2.38 1.41 -3.31 0.64 -1.97 0.68 -2.38 0.45 -8.32 -0.14 -3.63 -0.13 -4.15 0.25 -6.62 0.39 -2.63 0.39 -2.77 0.16 -6.80 -0.29 -4.63 -0.29 -13.13 -0.04 -21.64 0.20 -6.24 0.05 -11.25 -0.38 -13.77 -0.41 -2.34 -1.06 -4.40 -2.47 -7.94 -1.65 -4.15 -1.91 -5.20 -2.11 -8.78 -0.41 -7.01 -0.55 -8.55 -1.14 -12.79 -0.34 -2.47 -0.75 -5.95 -0.91 -7.78 -0.32 -3.84 -0.63 -5.72 -1.34 -8.58 -1.23 -4.92 -2.93 -8.35 -4.81 -9.73 -1.20 -0.88 -2.34 -1.36 -5.54 -2.32 -1.50 -0.46 -3.22 -1.04 -3.81 -1.27 -1.25 -0.52 -4.42 -2.38 -6.49 -3.81 -1.47 -1.04 -4.02 -3.40 -4.02 -3.72 0 -0.11 0.82 -0.36 1.84 -0.55 1 -0.20 2.38 -0.57 3.04 -0.86 1.09 -0.43 1.31 -0.46 2 -0.29 1.07 0.27 2.84 0.25 3.56 -0.05 0.73 -0.30 1.61 -1.34 1.88 -2.24 0.25 -0.86 0.25 -2.40 0 -3.33 -0.11 -0.39 -0.64 -1.68 -1.20 -2.86 -1 -2.13 -1.02 -2.16 -1.02 -3.76 0.02 -1.34 0.11 -1.91 0.61 -3.40 1.09 -3.29 0.93 -5.42 -0.63 -8.53 -0.84 -1.68 -3.68 -6.69 -5.40 -9.53 -1.93 -3.20 -3.95 -5.51 -6.21 -7.05 -2.27 -1.59 -4.92 -1.86 -7.01 -0.75 l-1.09 0.59 -1.04 -0.61 c-0.98 -0.55 -1.16 -0.59 -2.66 -0.59 -1.48 0 -1.72 0.05 -2.95 0.64 -3.09 1.48 -5.56 4.29 -8.85 10.09 -0.68 1.18 -1.90 3.31 -2.74 4.70 -0.84 1.41 -1.77 3.15 -2.07 3.84 -0.50 1.20 -0.55 1.43 -0.54 3.34 0 1.90 0.05 2.22 0.68 4.11 1.02 3.08 0.98 3.84 -0.30 6.56 -0.55 1.16 -1.14 2.63 -1.31 3.27 -0.63 2.50 0.20 4.65 2.11 5.45 0.79 0.32 2.41 0.36 3.36 0.07 0.61 -0.18 0.86 -0.14 2.45 0.43 0.98 0.36 2.38 0.72 3.09 0.82 0.70 0.09 1.34 0.21 1.39 0.27 0.57 0.57 -5.94 5.44 -9.71 7.26 -0.98 0.48 -3.04 1.23 -4.56 1.70 -3.67 1.07 -5.42 1.93 -6.60 3.24 -1.13 1.23 -2.25 3.49 -3.22 6.42 -0.97 2.97 -1.34 5.04 -2.07 11.27 -0.34 2.95 -0.79 6.53 -0.98 7.96 -0.50 3.74 -0.70 5.83 -0.89 10.37 -0.23 5.02 -0.50 6.40 -2.02 10.10 -1.90 4.65 -2.59 7.19 -2.99 10.73 -0.32 3.06 -0.39 7.17 -0.20 11.98 0.36 8.64 0.43 14.48 0.21 17.88 -0.45 6.71 -0.45 7.67 -0.04 10.46 0.36 2.32 0.39 3.18 0.34 8.14 -0.05 6.31 -0.14 5.79 1.59 9.39 0.97 1.98 1.07 2.15 3.34 4.40 2.79 2.79 3.99 3.65 5.04 3.65 1.07 0 1.41 -0.45 1.39 -1.86 -0.02 -1.38 -0.45 -2.65 -2.15 -6.22 -1.57 -3.31 -1.97 -5.10 -1.57 -7.10 0.13 -0.55 0.13 -0.55 0.98 0.89 1.84 3.09 3.09 4.31 4.45 4.35 1.63 0.04 1.88 -1.20 0.84 -4.15 -0.36 -1.02 -0.91 -3.06 -1.22 -4.56 -0.66 -3.33 -1.11 -4.35 -2.91 -6.74 -0.77 -1.04 -1.47 -2.06 -1.56 -2.29 -0.32 -0.82 -0.05 -7.87 0.46 -12.86 0.36 -3.25 0.89 -5.38 2.41 -9.44 3.61 -9.69 4.31 -13.21 4.65 -23.69 0.18 -5.53 0.36 -6.88 1.41 -10.55 0.57 -1.98 2.41 -7.33 2.52 -7.33 0.05 0 0.34 0.95 0.61 2.09 0.29 1.16 1.11 4.27 1.82 6.92 1.50 5.49 1.77 7.05 1.63 9.23 -0.13 1.90 -0.46 2.91 -2.16 6.54 -1.45 3.11 -1.98 4.65 -2.27 6.58 -0.14 0.88 -0.54 2.06 -1.32 3.77 -1.98 4.43 -2.63 7.10 -3.13 12.88 -0.32 3.68 -0.43 12.23 -0.20 15.91 0.72 11.59 3.17 24.27 7.89 40.77 0.70 2.47 1.50 5.63 1.79 7.06 0.54 2.68 1.79 14.14 1.79 16.45 0 1.57 -0.21 3.15 -1.07 7.78 -1.27 6.90 -1.61 9.82 -1.61 13.86 0 6.58 0.88 10.96 4.47 22.16 3.13 9.80 3.43 11.36 3.50 17.88 0.05 4.77 0.05 4.94 -0.34 5.54 -0.20 0.36 -1.81 2.09 -3.54 3.86 -1.73 1.77 -3.20 3.40 -3.29 3.63 -0.30 1.02 0.32 1.73 1.82 2 1.14 0.21 9.71 0.09 11.86 -0.18z"/>
  <path d="M34.19 307.82 c-0.16 -0.07 0.75 -1.11 2.59 -3 4.08 -4.15 4.56 -4.99 4.17 -7.39 -0.11 -0.72 -0.14 -1.38 -0.09 -1.48 0.23 -0.38 0.11 -5.13 -0.18 -7.06 -0.43 -2.88 -1.32 -6.44 -2.79 -11 -2.81 -8.82 -3.47 -11.18 -4.17 -15.02 -1.32 -7.28 -1.13 -11.64 1.07 -23.34 0.63 -3.31 0.68 -3.83 0.68 -6.88 0 -4.04 -0.88 -12.95 -1.66 -16.74 -0.29 -1.36 -1.20 -4.94 -2.04 -7.94 -4.40 -15.72 -6.53 -26.32 -7.37 -36.60 -0.32 -3.86 -0.36 -13.52 -0.09 -17.61 0.43 -6.29 1.11 -9.23 3.22 -13.73 0.63 -1.32 0.98 -2.41 1.23 -3.67 0.45 -2.31 0.93 -3.68 2.50 -7.01 1.57 -3.33 1.98 -4.85 1.98 -7.26 0 -2.18 -0.34 -3.84 -1.97 -9.82 -1.41 -5.19 -2.24 -8.69 -2.09 -8.83 0.05 -0.07 0.38 0.09 0.70 0.34 0.88 0.68 2.75 1.52 3.88 1.75 1.45 0.30 4.42 0.13 5.29 -0.30 0.86 -0.43 1.14 -0.84 0.88 -1.27 -0.23 -0.38 -0.97 -0.39 -2.84 -0.05 -2.34 0.43 -5.06 -0.43 -6.97 -2.18 -1.65 -1.50 -2.43 -3.24 -2.68 -5.87 -0.13 -1.45 0.11 -3.86 0.55 -5.69 0.30 -1.23 0.23 -1.90 -0.21 -2.07 -1.25 -0.48 -2.15 2.88 -2 7.42 0.07 2 0.16 2.61 0.55 3.72 l0.46 1.32 -1.45 4.04 c-3.15 8.74 -3.90 12.55 -3.90 19.58 0 7.46 -1.06 12.54 -4.54 21.80 -1.72 4.60 -2.22 6.90 -2.61 12.32 -0.25 3.36 -0.32 9.62 -0.13 10.55 0.09 0.41 0.70 1.41 1.59 2.59 1.73 2.31 2.13 3.15 2.65 5.51 0.61 2.91 1.09 4.72 1.54 5.87 0.97 2.45 0.18 1.81 -2.20 -1.84 -2.06 -3.11 -2.45 -3.58 -3.13 -3.58 -0.70 0 -0.80 0.38 -1.06 3.36 -0.29 3.36 -0.07 4.38 1.70 8.08 1.48 3.11 2.27 5.36 1.90 5.36 -0.29 0 -2.40 -1.82 -3.88 -3.36 -1.57 -1.63 -2.61 -3.34 -3.54 -5.94 l-0.46 -1.34 0.11 -5.19 c0.13 -4.85 0.11 -5.38 -0.27 -8.05 l-0.41 -2.86 0.32 -4.81 c0.29 -4.20 0.30 -5.76 0.16 -11.98 -0.23 -10.41 -0.20 -19.19 0.07 -21.12 0.38 -2.63 1.18 -5.38 2.63 -9.01 1.82 -4.58 2 -5.45 2.32 -11.64 0.27 -5.10 0.39 -6.49 0.89 -10.01 0.14 -1.04 0.55 -4.33 0.89 -7.33 0.89 -7.72 1.72 -11.28 3.38 -14.66 1.52 -3.06 2.18 -3.49 8.40 -5.45 3.06 -0.95 5.02 -1.93 8.08 -3.97 3.33 -2.24 5.49 -4.13 6.15 -5.42 0.45 -0.89 0.72 -2.84 0.72 -5.35 0 -1.20 0.04 -2.16 0.09 -2.16 0.05 0 0.68 0.48 1.38 1.09 0.72 0.59 1.90 1.38 2.63 1.73 1.25 0.61 1.45 0.66 2.97 0.66 1.52 0 1.72 -0.05 2.97 -0.66 0.73 -0.36 1.91 -1.14 2.63 -1.73 0.70 -0.61 1.32 -1.09 1.38 -1.09 0.05 0 0.09 0.95 0.09 2.11 0 2.61 0.23 4.15 0.82 5.35 0.63 1.31 2.83 3.31 5.79 5.28 3.36 2.24 6.06 3.52 9.73 4.61 1.66 0.50 3.42 1.11 3.88 1.36 1.59 0.80 2.50 1.98 3.68 4.76 1.45 3.45 2.34 7.60 2.83 13.29 0.16 1.77 0.55 5.19 0.89 7.60 0.34 2.41 0.70 5.76 0.80 7.42 0.11 1.68 0.27 4.26 0.36 5.72 0.21 3.29 0.52 4.51 2.15 8.65 2.66 6.81 2.97 8.82 2.79 18.15 -0.34 18.02 -0.34 19.19 -0.02 24 l0.30 4.65 -0.39 2.58 c-0.38 2.41 -0.39 2.91 -0.27 6.97 0.21 6.28 0.21 6.31 -0.50 8.15 -1.32 3.43 -2.13 4.56 -5.29 7.44 -1.84 1.68 -2.25 1.90 -2.06 1.09 0.29 -1.22 1.07 -3.13 1.88 -4.65 1.32 -2.49 1.95 -4.51 1.95 -6.37 0 -1.79 -0.29 -4.13 -0.59 -4.77 -0.29 -0.61 -0.95 -0.66 -1.48 -0.16 -0.25 0.23 -1.16 1.54 -2.02 2.91 -1.43 2.25 -2.88 4.06 -2.88 3.58 0 -0.09 0.32 -1.14 0.72 -2.31 0.39 -1.18 0.91 -3.18 1.16 -4.45 0.54 -2.81 1.09 -4.04 2.58 -5.83 1.93 -2.31 1.88 -2.06 1.84 -7.35 -0.04 -8.92 -0.64 -12.52 -3.34 -19.90 -3.09 -8.48 -4.01 -13.21 -4.02 -20.94 0 -5.78 -0.89 -10.30 -3.52 -17.88 -0.54 -1.57 -1.14 -3.36 -1.34 -3.97 l-0.36 -1.11 0.39 -1.11 c0.80 -2.36 0.88 -5.20 0.18 -8.78 -0.41 -2.16 -0.57 -2.47 -1.25 -2.47 -0.79 0 -0.97 0.46 -0.64 1.82 0.43 1.86 0.70 4.76 0.57 6.15 -0.23 2.56 -0.95 4.17 -2.49 5.54 -2.36 2.13 -5.51 2.83 -8.55 1.93 -0.84 -0.25 -0.93 -0.25 -1.25 0.04 -1.13 1.02 0.75 2.04 3.77 2.04 2.25 0 4.24 -0.59 6.01 -1.79 0.45 -0.29 0.84 -0.54 0.88 -0.54 0.11 0 -0.39 2.04 -2.06 8.23 -2.02 7.60 -2.04 7.69 -2.02 10.37 0.02 2.88 0.36 4.15 2.07 7.81 1.48 3.13 1.95 4.45 2.34 6.60 0.16 0.91 0.66 2.38 1.32 3.93 2.77 6.49 3.17 9.16 3.17 21.44 0 9.08 -0.18 11.61 -1.27 18.69 -1.11 7.24 -4.04 20.12 -6.44 28.34 -1.79 6.12 -2.47 9.55 -2.93 15.02 -0.11 1.29 -0.32 3.33 -0.46 4.56 -0.13 1.23 -0.25 3.20 -0.25 4.38 0 2.20 0.11 2.95 1.16 8.58 1.23 6.56 1.43 8.33 1.41 13.23 0 3.83 -0.05 4.83 -0.41 6.88 -0.73 4.27 -1.75 8.03 -4.74 17.42 -2.40 7.51 -2.83 10.07 -2.74 16.54 0.05 4.51 0.05 4.61 0.48 5.29 0.25 0.39 1.81 2.11 3.47 3.83 2.63 2.70 2.97 3.13 2.70 3.29 -0.46 0.25 -9.98 0.02 -11.98 -0.30 -1.59 -0.25 -2.06 -0.52 -2.06 -1.14 0 -0.14 0.25 -1.38 0.55 -2.75 0.61 -2.70 0.61 -2.63 0.23 -8.64 -0.11 -1.68 -0.07 -1.95 0.52 -4.11 2.07 -7.64 2.11 -12.45 0.13 -26 -1.31 -8.98 -1.32 -11.34 -0.07 -17.85 1.20 -6.31 1.06 -9.28 -0.82 -16.13 -1.04 -3.86 -1.25 -5.76 -1.25 -11.36 0 -5.01 0.27 -8.60 1.02 -13.70 0.61 -4.06 0.64 -4.69 0.66 -8.58 0 -2.72 -0.13 -5.47 -0.34 -7.78 -0.41 -4.47 -0.41 -9.84 -0.02 -15.52 l0.30 -4.26 1.73 -2.20 c4.76 -5.99 5.76 -7.31 5.76 -7.60 0 -0.45 -0.36 -0.73 -0.93 -0.73 -0.54 0 -0.59 0.07 -5.90 6.87 -0.91 1.18 -1.88 2.29 -2.15 2.49 -0.63 0.46 -1.50 0.43 -2.06 -0.09 -0.25 -0.23 -1.86 -2.25 -3.58 -4.49 -1.72 -2.24 -3.29 -4.22 -3.50 -4.42 -0.64 -0.61 -1.56 -0.38 -1.56 0.39 0 0.30 4.54 6.44 6.62 8.94 l0.84 1 0.16 4.18 c0.25 6.40 0.18 12.62 -0.18 17.40 -0.41 5.40 -0.30 8.78 0.43 13.89 0.80 5.54 0.93 8.03 0.86 15.52 l-0.09 6.71 -0.91 3.31 c-1.25 4.47 -1.48 5.72 -1.59 8.85 -0.07 2.56 -0.05 2.90 0.66 6.97 1.20 6.87 1.18 9.26 -0.09 18.33 -1.13 7.99 -1.23 9.24 -1.23 14.13 -0.02 5.20 0.18 6.83 1.34 11.39 0.79 3.11 0.84 3.95 0.41 6.80 -0.32 2.13 -0.27 3.33 0.27 5.87 0.82 3.93 0.80 3.99 -1.61 4.33 -1.75 0.25 -11.34 0.48 -11.75 0.30z m16.15 -172.92 c0.73 -0.29 0.64 -1.72 -0.13 -1.97 -0.52 -0.16 -1.22 0.39 -1.22 0.95 0 0.82 0.63 1.29 1.34 1.02z"/>
  <path d="M49.57 303.72 c-0.11 -0.39 -0.32 -1.50 -0.48 -2.49 -0.25 -1.59 -0.25 -1.93 0 -3.63 0.45 -3.02 0.38 -4.35 -0.43 -7.44 -1.16 -4.52 -1.36 -6.08 -1.36 -10.85 0.02 -4.40 0.14 -5.90 1.16 -13.09 0.93 -6.44 1.11 -8.39 1.13 -11.32 0 -3.08 -0.13 -4.27 -1 -8.85 -0.68 -3.59 -0.77 -7.21 -0.25 -9.92 0.50 -2.52 1.41 -5.70 1.57 -5.44 0.27 0.50 1.39 5.35 1.61 6.88 0.30 2.27 0.11 5.24 -0.52 8.48 -1.39 7.12 -1.41 9.32 -0.14 18.33 1.16 8.28 1.38 10.17 1.48 13.86 0.13 4.11 -0.21 7.40 -1.14 10.89 -1.22 4.63 -1.20 4.47 -0.86 7.08 0.39 2.99 0.38 4.43 -0.14 6.53 l-0.43 1.70 -0.20 -0.72z"/>
  <path d="M49.64 204.27 c-0.55 -3.52 -0.63 -8.57 -0.20 -14.56 0.16 -2.20 0.30 -4.02 0.34 -4.04 0.14 -0.16 0.72 9.60 0.70 12.11 -0.02 2.66 -0.41 6.85 -0.66 7.10 -0.04 0.05 -0.13 -0.23 -0.18 -0.61z"/>
  <path d="M49.66 177.30 c-0.05 -0.79 -0.16 -2.58 -0.23 -3.97 l-0.13 -2.56 0.48 0 c0.45 0 0.46 0.04 0.45 0.95 0 0.50 -0.11 2.31 -0.23 3.97 -0.21 3 -0.21 3.02 -0.34 1.61z"/>
  <path d="M58.74 59.31 c-0.04 -0.13 -0.11 -1.66 -0.18 -3.43 l-0.11 -3.22 0.82 -1.43 c0.45 -0.79 1 -2.02 1.20 -2.72 0.32 -1.07 0.52 -1.39 1.09 -1.86 0.38 -0.30 0.72 -0.52 0.75 -0.48 0.05 0.04 -0.07 0.88 -0.27 1.86 -0.52 2.74 -0.61 4.60 -0.30 6.08 0.30 1.39 0.91 2.75 1.65 3.61 0.43 0.52 0.45 0.55 0.13 0.73 -0.43 0.23 -2.95 0.84 -3.93 0.97 -0.50 0.05 -0.80 0.02 -0.84 -0.11z"/>
  <path d="M38.45 59.12 c-1.32 -0.30 -2.29 -0.63 -2.41 -0.84 -0.07 -0.09 0.13 -0.46 0.43 -0.82 1.65 -2.07 1.98 -4.85 1.11 -9.33 -0.21 -1.04 -0.34 -1.90 -0.32 -1.93 0.04 -0.04 0.38 0.18 0.73 0.45 0.57 0.43 0.77 0.75 1.09 1.81 0.23 0.72 0.77 1.91 1.20 2.68 l0.79 1.36 -0.07 3.45 -0.07 3.43 -0.73 -0.02 c-0.41 -0.02 -1.20 -0.13 -1.73 -0.23z"/>
  <path d="M30.85 58.12 c-0.75 -0.30 -1.22 -1.04 -1.31 -2.04 -0.09 -1.13 0.23 -2.22 1.22 -4.22 1.52 -3.08 1.61 -4.72 0.45 -8.40 -0.59 -1.84 -0.64 -2.22 -0.59 -3.58 0.09 -1.82 0.34 -2.45 2.54 -6.13 0.82 -1.39 2.13 -3.63 2.88 -4.95 2 -3.49 3 -4.90 4.83 -6.71 1.97 -1.97 3.47 -2.81 5.10 -2.83 1.04 0 1.13 0.04 3.18 1.23 0.57 0.34 0.57 0.34 1.34 -0.09 1.86 -1.06 2.18 -1.18 3.20 -1.16 1.50 0.02 3.06 0.86 4.88 2.59 1.84 1.79 2.93 3.29 5.63 7.94 2.88 4.92 4.20 7.44 4.58 8.76 0.41 1.45 0.25 3.27 -0.48 5.45 -0.64 1.95 -0.84 3.86 -0.54 5.13 0.13 0.46 0.66 1.81 1.22 2.97 0.86 1.82 1.02 2.31 1.07 3.40 0.07 1.07 0.02 1.38 -0.29 1.88 -0.46 0.73 -1.13 0.98 -2.24 0.86 -2.41 -0.27 -4.22 -2.86 -4.22 -6.03 0 -0.55 0.16 -1.93 0.36 -3.04 0.46 -2.66 0.46 -4.79 0 -6.28 -0.39 -1.25 -1.41 -2.81 -3.97 -5.97 -1.88 -2.32 -2.75 -3.93 -3.90 -7.22 -0.46 -1.36 -1.04 -2.81 -1.27 -3.24 -0.79 -1.43 -2.25 -1.82 -3.84 -1.04 l-0.82 0.39 -0.86 -0.41 c-1.20 -0.55 -2.47 -0.45 -3.24 0.29 -0.75 0.72 -1.09 1.41 -1.86 3.92 -1.07 3.43 -2.13 5.28 -4.94 8.53 -1.47 1.70 -2.59 3.43 -3.02 4.65 -0.46 1.34 -0.46 3.52 0 6.21 0.45 2.56 0.45 4.15 0.02 5.54 -0.57 1.84 -1.66 3.04 -3.13 3.50 -0.98 0.30 -1.45 0.32 -1.98 0.09z"/>
  <path d="M48.62 56.27 c-2.24 -0.63 -5.33 -3.40 -7.10 -6.38 -0.84 -1.43 -1.13 -2.77 -1.38 -6.56 l-0.25 -3.67 1.31 -1.57 c2.45 -2.93 3.25 -4.40 4.40 -8.03 0.41 -1.32 0.88 -2.59 1.02 -2.83 0.43 -0.64 0.97 -0.68 1.95 -0.16 1.07 0.57 1.22 0.57 2.47 0 1.63 -0.75 1.84 -0.54 3.06 3.15 0.38 1.13 0.88 2.50 1.13 3.04 0.57 1.32 2.06 3.56 3.42 5.19 0.97 1.14 1.11 1.39 1.02 1.88 -0.05 0.29 -0.14 1.59 -0.20 2.86 -0.18 3.43 -0.46 4.83 -1.32 6.49 -1.75 3.34 -5.36 6.44 -7.89 6.72 -0.45 0.05 -1.18 0 -1.63 -0.13z"/>
  <path d="M37.93 44.24 c-0.21 -0.27 -0.38 -0.59 -0.38 -0.72 0 -0.34 0.57 -1.50 0.75 -1.50 0.07 0 0.14 0.61 0.14 1.34 0 0.73 -0.04 1.34 -0.07 1.34 -0.05 0 -0.25 -0.21 -0.45 -0.46z"/>
  <path d="M61.12 44.58 c-0.04 -0.07 -0.04 -0.70 0.02 -1.39 l0.11 -1.25 0.41 0.75 c0.21 0.41 0.39 0.79 0.39 0.82 0 0.18 -0.88 1.20 -0.93 1.07z"/>
 </g>
</svg>