<?xml version="1.0" encoding="utf-8"?>
<!DOCTYPE svg PUBLIC "-//W3C//DTD SVG 1.0//EN" "http://www.w3.org/TR/2001/REC-SVG-20010904/DTD/svg10.dtd">
<svg version="1.0" xmlns="http://www.w3.org/2000/svg" width="95px" height="335px" viewBox="0 0 95 335" preserveAspectRatio="xMidYMid meet">
 <g fill="#000000">
  <path d="M36.59 317.73 c-4.68 -0.49 -5.85 -0.86 -6.43 -1.99 -0.42 -0.79 -0.33 -2.27 0.17 -2.93 0.58 -0.77 1.26 -1.05 4.17 -1.71 7.67 -1.75 12.31 -3.79 18.62 -8.23 4.26 -2.99 5.03 -4.56 5.03 -10.30 0 -5.62 -0.63 -10.55 -2.79 -22.23 -1.89 -10.16 -2.10 -12.03 -2.25 -19.40 l-0.10 -5.68 -0.49 -0.70 c-0.26 -0.37 -1.03 -1.38 -1.69 -2.25 -2.44 -3.13 -3.51 -6.01 -4.44 -12.07 -0.65 -4.17 -1.31 -6.53 -4.37 -15.70 -4.30 -12.80 -5.27 -16.21 -6.29 -21.57 -1 -5.29 -1.03 -5.80 -1.08 -15 l-0.05 -8.61 -0.61 -3 c-1 -4.89 -1.07 -5.62 -1.07 -11.72 0.02 -5.95 0.07 -6.51 1.15 -13.62 0.66 -4.35 0.63 -5.55 -0.37 -10.74 -1.57 -8.19 -1.92 -12.22 -1.59 -17.55 l0.21 -3.25 -0.59 -0.91 c-1.94 -2.93 -2.57 -4.75 -2.57 -7.37 0 -3.16 0.58 -4.24 4.44 -8.26 4.63 -4.84 6.23 -7.11 9.88 -14.01 1.85 -3.48 2.58 -4.61 3.96 -6.16 1.19 -1.33 1.62 -2.17 1.62 -3.07 0 -0.96 -0.77 -3.30 -1.66 -5.08 -0.73 -1.47 -2.60 -4.19 -2.86 -4.19 -0.07 0 -0.75 0.16 -1.50 0.35 -3.34 0.86 -5.43 0.12 -6.09 -2.10 -0.14 -0.49 -0.35 -2.04 -0.45 -3.44 -0.12 -1.50 -0.30 -2.74 -0.44 -3.04 -0.14 -0.26 -0.65 -0.77 -1.12 -1.15 -1.10 -0.86 -1.41 -1.40 -1.41 -2.41 0 -0.87 0.24 -1.43 1.15 -2.71 0.31 -0.45 0.80 -1.29 1.07 -1.85 0.49 -1.01 0.49 -1.08 0.45 -4.14 -0.03 -2.79 -0.07 -3.18 -0.40 -3.75 -1.29 -2.32 -1.31 -2.36 -1.31 -5.20 l0 -2.62 0.65 -1.31 c0.86 -1.73 2.43 -3.25 4.19 -4.09 2.10 -1 4.28 -1.19 7.88 -0.68 1.99 0.26 1.99 0.26 4.59 -0.21 2.20 -0.42 3.09 -0.49 5.75 -0.49 2.76 -0.02 3.32 0.03 4.63 0.38 5.95 1.62 11.05 6.97 12.70 13.29 0.40 1.57 0.42 1.89 0.35 4.99 -0.09 3.09 -0.14 3.58 -0.89 7.16 -1.22 5.90 -1.10 7.54 0.91 11.56 0.58 1.15 1.19 2.55 1.34 3.11 0.40 1.34 0.30 3.21 -0.19 3.88 -0.66 0.89 -0.98 0.96 -3.70 0.84 -2.25 -0.10 -2.62 -0.07 -3.79 0.28 l-1.27 0.37 0.59 1.43 c0.33 0.77 1.14 2.36 1.76 3.51 4.10 7.42 4.89 10.01 4.72 15.37 -0.12 3.34 -0.54 5.92 -2.11 12.94 -1.78 8 -1.96 9.03 -2.72 15.87 -0.47 4.23 -0.75 5.89 -1.66 9.60 -1.03 4.24 -1.10 4.78 -1.20 10.83 -0.09 4.87 -0.28 7.07 -0.79 9.34 -0.14 0.63 -0.09 0.79 1.07 2.65 3.37 5.52 5.15 9.76 6.18 14.76 0.40 1.92 0.47 2.67 0.49 5.38 0.02 5.20 -0.66 7.72 -3.91 14.48 -2.72 5.68 -3.04 6.88 -3 11.72 0 1.92 0.19 5.78 0.40 8.56 0.30 3.98 0.40 7.47 0.51 16.33 0.17 14.02 -0.07 12.38 3.49 23.05 3.07 9.22 3.77 12.17 3.96 16.94 0.12 3.04 -0.10 5.64 -0.91 10.30 -1.36 7.86 -1.64 10.86 -1.78 19.12 -0.14 8.80 0.03 10.65 1.52 15.45 0.40 1.33 0.73 2.83 0.80 3.63 0.31 3.68 -1.22 6.71 -4.09 8.03 -0.86 0.40 -1.27 0.47 -3.09 0.54 -1.15 0.03 -3.35 -0.05 -4.89 -0.17 -4.12 -0.37 -7.18 -0.26 -12.03 0.35 -3.65 0.47 -4.66 0.54 -8.12 0.52 -2.17 -0.02 -4.96 -0.12 -6.22 -0.26z m11.44 -2.79 c1.20 -0.12 3.06 -0.35 4.10 -0.49 2.95 -0.38 6.39 -0.49 8.99 -0.28 4.40 0.35 6.69 0.40 7.46 0.19 1.55 -0.42 2.99 -1.97 3.42 -3.68 0.30 -1.12 0.17 -1.87 -0.68 -4.61 -1.36 -4.31 -1.55 -6.51 -1.41 -16.61 0.12 -9.27 0.31 -11.40 1.69 -19.65 1 -5.92 1.15 -7.74 0.89 -10.34 -0.42 -4.10 -1.12 -6.78 -3.95 -15.09 -3.28 -9.62 -3.23 -9.22 -3.41 -23.03 -0.10 -8.63 -0.23 -12.40 -0.52 -16.50 -0.44 -6.16 -0.52 -13.27 -0.19 -15.02 0.40 -2.10 1.26 -4.40 2.99 -8.03 2.03 -4.30 2.79 -6.29 3.32 -8.64 1.20 -5.40 -0.37 -12.17 -4.58 -19.79 -0.49 -0.87 -0.91 -1.59 -0.94 -1.57 -0.05 0.05 -1.82 9.88 -2.34 13.06 -0.21 1.20 -0.72 4.16 -1.15 6.55 -0.86 4.78 -0.93 5.99 -0.68 12.14 0.16 3.88 -0.07 5.99 -1.05 9.33 -1.62 5.59 -2.99 9.17 -4.02 10.51 -0.65 0.84 -1.73 1.19 -3.30 1.07 -2.67 -0.19 -3.51 -1.29 -3.09 -4.02 0.10 -0.70 0.31 -2.08 0.45 -3.09 0.21 -1.31 0.26 -2.32 0.17 -3.55 l-0.12 -1.73 -0.40 0.72 c-1.15 2.03 -1.97 2.64 -3.55 2.64 -2.31 0 -2.60 -1.15 -1.47 -5.78 0.38 -1.57 0.91 -4 1.17 -5.40 0.52 -2.95 1.12 -4.78 2.41 -7.63 1.75 -3.79 2.32 -6.16 2.74 -11.05 0.21 -2.48 0.17 -3.23 -0.35 -8.73 -0.49 -4.99 -0.58 -7.61 -0.35 -10.70 0.24 -3.58 0.65 -5.90 1.96 -11.21 1.05 -4.30 1.07 -4.40 1.07 -6.72 -0.02 -1.82 -0.19 -3.65 -0.80 -7.95 -0.93 -6.57 -1.12 -8.40 -1.34 -13.80 -0.33 -7.74 -0.89 -12.54 -1.75 -15.02 -0.42 -1.24 -0.45 -2.31 -0.05 -2.74 0.37 -0.40 1.82 -0.44 2.22 -0.05 1.01 1.03 1.99 7.95 2.38 16.94 0.21 5.03 0.52 8.24 1.33 13.71 1.27 8.68 1.22 10.86 -0.35 17.24 -2.01 8.07 -2.38 12.70 -1.50 19.44 0.75 5.90 0.56 12.10 -0.56 16.85 -0.44 1.89 -0.89 3.11 -2.13 5.85 -0.52 1.12 -1.15 2.67 -1.38 3.44 -0.37 1.14 -1.07 4.52 -1.43 6.95 -0.05 0.31 0.19 -0.05 0.63 -0.96 0.47 -0.96 0.77 -1.82 0.82 -2.39 0.03 -0.51 0.17 -1 0.30 -1.10 0.12 -0.10 0.68 -0.17 1.24 -0.14 0.93 0.05 1.03 0.10 1.15 0.49 0.10 0.42 0.37 2.48 0.66 5.33 0.26 2.38 0.19 7.35 -0.09 9.15 -0.16 0.91 -0.23 1.76 -0.19 1.89 0.14 0.35 0.70 0.26 1.12 -0.16 0.86 -0.94 2.74 -6.06 4.19 -11.40 l0.47 -1.75 0 -7.16 c0 -7.09 0.02 -7.18 0.49 -9.59 0.26 -1.33 0.75 -4 1.07 -5.94 0.82 -4.84 2.10 -11.98 2.83 -15.73 1.41 -7.30 1.48 -7.89 1.64 -14.41 0.07 -3.32 0.19 -6.18 0.24 -6.37 0.37 -1.31 1.71 -7.26 1.92 -8.56 0.14 -0.86 0.42 -3.02 0.63 -4.80 0.75 -6.78 1.10 -8.73 2.86 -16.59 1.17 -5.13 1.82 -8.89 1.96 -11.26 0.23 -3.58 -0.86 -6.88 -4.02 -12.40 -0.63 -1.08 -0.80 -1.29 -0.80 -0.94 0 1.07 -0.98 1.26 -3.14 0.59 -0.65 -0.19 -1.41 -0.26 -2.36 -0.23 -1.94 0.07 -2.76 0.51 -4.73 2.53 -1.57 1.62 -1.59 1.62 -2.44 1.62 -0.49 0 -0.96 -0.09 -1.08 -0.21 -0.12 -0.12 -0.21 -0.63 -0.21 -1.15 l0 -0.96 1.52 -1.55 c1.80 -1.82 2.74 -2.46 4.16 -2.85 1.34 -0.35 4.85 -0.35 6.29 0 0.58 0.14 1.10 0.24 1.15 0.26 0.05 0 -0.30 -0.94 -0.79 -2.10 l-0.89 -2.10 -1.48 0 c-2.43 0 -4.16 -0.63 -5.48 -1.99 -1.66 -1.73 -2.13 -3.46 -2.27 -8.59 -0.09 -2.48 -0.19 -3.67 -0.45 -4.68 -0.47 -1.83 -0.47 -1.85 -1.22 -1.61 -0.61 0.19 -0.61 0.21 -0.72 1.43 -0.21 2.34 -1.52 4.19 -3.98 5.66 l-1.19 0.72 0.93 1.38 c1.07 1.59 1.96 3.41 2.64 5.36 0.44 1.22 0.49 1.61 0.49 3.81 0 2.36 -0.02 2.48 -0.49 3.34 -0.28 0.49 -1.05 1.50 -1.69 2.27 -0.93 1.03 -1.64 2.15 -2.99 4.68 -4.35 8.12 -5.75 10.11 -10.69 15.26 -3.23 3.37 -3.88 4.40 -3.86 6.15 0 0.94 0.10 1.38 0.65 2.53 0.37 0.77 1.07 2.03 1.57 2.78 0.87 1.34 0.91 1.43 0.91 2.62 -0.02 0.68 -0.10 2.53 -0.23 4.12 -0.31 4.44 -0.02 7.65 1.36 14.84 1 5.15 1.05 5.61 1.05 8.21 0 1.62 -0.14 3.27 -0.44 5.24 -1.10 7.35 -1.20 8.43 -1.20 13.27 -0.02 4.98 0.03 5.54 1.15 10.74 l0.52 2.44 0.03 8.82 c0.03 8 0.07 9.03 0.42 11.18 1.07 6.90 2.27 11.25 6.60 24.01 2.99 8.84 3.95 12.19 4.52 15.93 1.10 7.04 1.87 9.10 4.77 12.82 0.86 1.10 1.66 2.18 1.78 2.43 0.19 0.33 0.28 1.87 0.37 6.46 0.16 7.40 0.37 9.29 2.17 18.95 2.48 13.25 2.97 17.60 2.85 24.80 -0.09 4.56 -0.21 5.27 -1.19 7.40 -0.73 1.55 -2.17 2.90 -5.61 5.20 -4.91 3.30 -7.67 4.66 -12.59 6.25 -2.03 0.66 -6.62 1.83 -7.16 1.83 -0.17 0 -0.31 0.09 -0.31 0.17 0 0.10 0.05 0.17 0.14 0.17 0.07 0 1.03 0.12 2.13 0.28 4.26 0.58 7.61 0.61 11.70 0.14z m18.48 -250.30 c2.27 -0.86 4.56 -1.10 6.30 -0.70 1.15 0.26 1.27 0.16 0.96 -0.79 -0.16 -0.44 -0.38 -0.87 -0.52 -1 -0.21 -0.16 -0.24 -0.10 -0.24 0.35 0 0.51 -0.03 0.54 -0.61 0.54 -0.59 0 -0.61 -0.02 -0.61 -0.70 0 -0.66 0.03 -0.70 0.52 -0.70 0.63 0 0.63 0 0.17 -0.82 -0.19 -0.37 -0.35 -0.77 -0.35 -0.91 0 -0.12 -0.16 -0.49 -0.33 -0.79 -0.38 -0.63 -0.87 -2.22 -1.05 -3.39 -0.10 -0.77 -0.14 -0.82 -0.68 -0.87 -0.51 -0.05 -0.56 -0.10 -0.56 -0.65 0 -0.54 0.05 -0.59 0.58 -0.65 l0.56 -0.05 0.05 -1.96 0.05 -1.97 -0.63 0 -0.61 0 0 -1.14 0 -1.14 0.61 0 c0.61 0 0.61 0 0.63 0.84 l0.02 0.82 0.16 -0.70 c0.09 -0.38 0.23 -0.86 0.33 -1.05 0.45 -0.96 1.31 -6.32 1.27 -8.05 -0.02 -0.86 -0.80 -3.84 -1.08 -4.14 -0.24 -0.24 -0.72 0.09 -0.72 0.51 0 0.37 -0.09 0.42 -0.61 0.42 l-0.61 0 0 -1.22 0 -1.22 0.70 0 c0.38 0 0.70 -0.07 0.70 -0.16 0 -0.31 -2.08 -3.23 -2.92 -4.12 -1.75 -1.83 -3.25 -2.90 -4.98 -3.58 -0.80 -0.30 -1.68 -0.68 -1.97 -0.84 -0.42 -0.23 -1.12 -0.31 -3.27 -0.35 -2.41 -0.05 -2.92 -0.02 -4.28 0.33 -1.69 0.45 -3.65 0.51 -8.61 0.26 l-2.53 -0.12 -1.31 0.66 c-1 0.51 -1.38 0.80 -1.57 1.22 -0.14 0.31 -0.40 0.58 -0.56 0.58 -0.38 0 -1.12 0.96 -1.45 1.90 -0.38 1.08 -0.33 1.08 0.35 -0.09 0.79 -1.31 1.01 -1.47 2.03 -1.47 1.12 0 1.38 0.38 1.38 1.92 0 1.31 0.38 2.99 0.87 3.75 0.17 0.28 0.56 0.93 0.84 1.40 0.70 1.19 2.81 3.07 5.33 4.77 4.68 3.13 6.06 4.56 8.05 8.33 1.24 2.36 1.69 4.68 1.83 9.43 l0.10 3.67 0.56 1.15 c0.35 0.70 0.91 1.47 1.40 1.92 0.79 0.72 0.84 0.75 0.89 0.38 0.05 -0.38 0.12 -0.40 1.89 -0.40 l1.82 0 0 0.52 c0 0.30 0.09 0.52 0.19 0.52 0.09 0 0.79 -0.23 1.52 -0.51z m-23.75 -6.92 c2.38 -0.80 4.72 -2.04 5.76 -3.06 1.14 -1.07 1.59 -2.13 1.73 -3.89 0.05 -0.84 0.19 -1.55 0.35 -1.71 0.14 -0.16 0.61 -0.33 1.07 -0.40 1.31 -0.17 1.33 -0.24 0.56 -1.45 -0.96 -1.45 -2.27 -2.64 -5.15 -4.59 -4.49 -3.06 -6.01 -4.52 -7.39 -7.07 l-0.65 -1.22 -0.10 5.15 c-0.05 2.90 -0.17 5.38 -0.28 5.68 -0.28 0.82 -0.93 2.03 -1.40 2.67 l-0.44 0.58 0.94 1 c1.14 1.19 1.26 1.62 1.54 5.08 0.19 2.43 0.44 3.35 1 3.67 0.44 0.26 0.42 0.26 2.46 -0.42z"/>
  <path d="M63.92 61.91 l0 -0.79 0.79 0 c0.77 0 0.79 0.02 0.79 0.54 0 0.30 -0.10 0.65 -0.24 0.79 -0.14 0.14 -0.49 0.24 -0.79 0.24 -0.52 0 -0.54 -0.02 -0.54 -0.79z"/>
  <path d="M69.50 61.99 l0 -0.70 0.87 0 0.87 0 0 0.59 c0 0.63 -0.26 0.80 -1.26 0.80 -0.45 0 -0.49 -0.05 -0.49 -0.70z"/>
  <path d="M66.19 61.73 c0 -0.58 0.03 -0.61 0.61 -0.61 0.58 0 0.61 0.03 0.61 0.61 0 0.58 -0.03 0.61 -0.61 0.61 -0.58 0 -0.61 -0.03 -0.61 -0.61z"/>
  <path d="M61.12 61.21 c0 -0.79 0 -0.79 0.61 -0.79 0.61 0 0.61 0 0.61 0.79 0 0.79 0 0.79 -0.61 0.79 -0.61 0 -0.61 0 -0.61 -0.79z"/>
  <path d="M68.98 58.85 c0 -0.68 0.02 -0.70 0.61 -0.70 0.59 0 0.61 0.02 0.61 0.70 0 0.68 -0.02 0.70 -0.61 0.70 -0.59 0 -0.61 -0.02 -0.61 -0.70z"/>
  <path d="M66.57 51.57 l0.05 -1.01 0.66 -0.05 c0.61 -0.05 0.65 -0.03 0.65 0.45 0 0.28 -0.05 0.77 -0.10 1.07 -0.10 0.47 -0.17 0.54 -0.72 0.54 l-0.59 0 0.05 -1z"/>
  <path d="M63.74 47.67 l0 -0.70 1.05 0 1.05 0 0 0.59 c0 0.52 -0.07 0.59 -0.54 0.70 -0.30 0.05 -0.77 0.10 -1.05 0.10 -0.47 0 -0.51 -0.05 -0.51 -0.70z"/>
  <path d="M57.98 46.36 c0 -0.58 0.03 -0.61 0.61 -0.61 0.58 0 0.61 0.03 0.61 0.61 0 0.58 -0.03 0.61 -0.61 0.61 -0.58 0 -0.61 -0.03 -0.61 -0.61z"/>
  <path d="M65.66 43.75 c0 -0.33 0.09 -0.61 0.17 -0.61 0.10 0 0.17 -0.56 0.17 -1.31 l0 -1.31 0.61 0 0.61 0 0 1.92 0 1.92 -0.79 0 c-0.79 0 -0.79 0 -0.79 -0.61z"/>
  <path d="M63.74 43.40 c0 -0.79 0 -0.79 0.61 -0.79 0.61 0 0.61 0 0.61 0.79 0 0.79 0 0.79 -0.61 0.79 -0.61 0 -0.61 0 -0.61 -0.79z"/>
  <path d="M63.74 41.74 l0 -0.70 -0.87 0 c-0.75 0 -0.87 0.05 -0.87 0.35 0 0.26 -0.12 0.35 -0.51 0.35 -0.86 0 -1.07 -0.16 -1.07 -0.80 0 -0.52 0.05 -0.59 0.44 -0.59 0.35 0 0.44 -0.09 0.44 -0.44 0 -0.38 0.07 -0.44 0.70 -0.44 0.38 0 0.70 0.09 0.70 0.17 0 0.10 0.12 0.17 0.28 0.17 0.23 0 0.26 -0.16 0.16 -1.14 l-0.12 -1.14 0.72 0 0.72 0 0 1.40 c0 1.38 0 1.40 0.44 1.40 0.38 0 0.44 0.07 0.44 0.61 0 1.01 -0.31 1.48 -1 1.48 -0.56 0 -0.58 -0.02 -0.58 -0.70z"/>
  <path d="M54.83 41.21 l0 -0.87 0.61 0 0.61 0 0 0.87 0 0.87 -0.61 0 -0.61 0 0 -0.87z"/>
  <path d="M52.39 40.95 c0 -0.58 0.03 -0.61 0.61 -0.61 0.58 0 0.61 0.03 0.61 0.61 0 0.58 -0.03 0.61 -0.61 0.61 -0.58 0 -0.61 -0.03 -0.61 -0.61z"/>
  <path d="M48.90 38.16 c0 -0.79 0 -0.79 0.61 -0.79 0.61 0 0.61 0 0.61 0.79 0 0.79 0 0.79 -0.61 0.79 -0.61 0 -0.61 0 -0.61 -0.79z"/>
  <path d="M61.12 38.16 c0 -0.58 0.03 -0.61 0.61 -0.61 0.58 0 0.61 0.03 0.61 0.61 0 0.58 -0.03 0.61 -0.61 0.61 -0.58 0 -0.61 -0.03 -0.61 -0.61z"/>
  <path d="M57.80 37.98 c0 -0.58 0.03 -0.61 0.61 -0.61 0.58 0 0.61 0.03 0.61 0.61 0 0.58 -0.03 0.61 -0.61 0.61 -0.58 0 -0.61 -0.03 -0.61 -0.61z"/>
  <path d="M66.53 37.81 c0 -0.59 0.02 -0.61 0.70 -0.61 0.68 0 0.70 0.02 0.70 0.61 0 0.59 -0.02 0.61 -0.70 0.61 -0.68 0 -0.70 -0.02 -0.70 -0.61z"/>
  <path d="M54.83 34.49 c0 -0.58 0.03 -0.61 0.61 -0.61 0.58 0 0.61 0.03 0.61 0.61 0 0.58 -0.03 0.61 -0.61 0.61 -0.58 0 -0.61 -0.03 -0.61 -0.61z"/>
  <path d="M58.33 34.49 c0 -0.58 0.03 -0.61 0.61 -0.61 0.58 0 0.61 0.03 0.61 0.61 0 0.58 -0.03 0.61 -0.61 0.61 -0.58 0 -0.61 -0.03 -0.61 -0.61z"/>
  <path d="M51.69 31.17 c0 -0.58 0.03 -0.61 0.61 -0.61 0.58 0 0.61 0.03 0.61 0.61 0 0.58 -0.03 0.61 -0.61 0.61 -0.58 0 -0.61 -0.03 -0.61 -0.61z"/>
  <path d="M66.53 31.36 c0 -0.28 -0.10 -0.45 -0.26 -0.45 -0.17 0 -0.26 -0.19 -0.26 -0.61 0 -0.58 0.03 -0.61 0.61 -0.61 0.49 0 0.61 0.07 0.61 0.35 0 0.24 0.12 0.35 0.37 0.35 0.30 0 0.35 0.09 0.30 0.66 -0.05 0.61 -0.09 0.65 -0.70 0.70 -0.61 0.05 -0.66 0.02 -0.66 -0.38z"/>
  <path d="M42.26 31 l0 -0.61 0.87 0 0.87 0 0 0.61 0 0.61 -0.87 0 -0.87 0 0 -0.61z"/>
  <path d="M57.80 31 c0 -0.58 0.03 -0.61 0.61 -0.61 0.58 0 0.61 0.03 0.61 0.61 0 0.58 -0.03 0.61 -0.61 0.61 -0.58 0 -0.61 -0.03 -0.61 -0.61z"/>
  <path d="M61.12 31 c0 -0.61 0 -0.61 0.79 -0.61 0.79 0 0.79 0 0.79 0.61 0 0.61 0 0.61 -0.79 0.61 -0.79 0 -0.79 0 -0.79 -0.61z"/>
 </g>
 <g fill="#ffffff">
  <path d="M0 167.65 l0 -167.65 47.50 0 47.50 0 0 167.65 0 167.65 -47.50 0 -47.50 0 0 -167.65z m50.31 149.33 c5.73 -0.72 7.44 -0.80 11 -0.52 1.68 0.14 4.17 0.24 5.57 0.24 2.38 0 2.58 -0.03 3.53 -0.47 2.06 -0.96 3.42 -2.74 3.91 -5.06 0.35 -1.64 0.21 -2.76 -0.65 -5.59 -1.48 -4.82 -1.64 -6.58 -1.50 -15.94 0.14 -8.77 0.40 -11.63 1.78 -19.65 0.77 -4.52 1.03 -7.32 0.89 -9.78 -0.23 -4.40 -1 -7.54 -3.95 -16.42 -3.56 -10.67 -3.32 -9.03 -3.49 -23.05 -0.10 -8.91 -0.21 -12.33 -0.52 -16.33 -0.21 -2.86 -0.38 -6.81 -0.40 -9.08 -0.02 -5.41 0.23 -6.41 3.02 -12.24 3.14 -6.55 3.91 -9.33 3.89 -13.95 0 -3.07 -0.49 -5.76 -1.62 -9.17 -1.22 -3.63 -2.32 -5.94 -4.94 -10.29 l-1.41 -2.32 0.23 -1.26 c0.65 -3.67 0.73 -4.63 0.82 -9.62 0.10 -6.04 0.17 -6.58 1.20 -10.83 0.91 -3.72 1.19 -5.38 1.66 -9.60 0.77 -6.85 0.94 -7.88 2.72 -15.87 2.51 -11.23 2.71 -14.58 1.12 -19.56 -0.54 -1.66 -1.62 -3.93 -3.72 -7.70 -0.63 -1.15 -1.50 -2.93 -1.94 -3.96 l-0.79 -1.87 1.43 -0.47 c1.17 -0.37 1.71 -0.44 3 -0.42 4.17 0.12 3.91 0.14 4.45 -0.47 1.07 -1.19 0.87 -2.60 -0.82 -6.04 -2.17 -4.40 -2.32 -6.36 -1 -12.80 0.72 -3.49 0.82 -4.35 0.89 -6.71 0.07 -2.46 0.03 -2.86 -0.35 -4.38 -1.64 -6.32 -6.74 -11.67 -12.70 -13.29 -2.24 -0.61 -5.43 -0.56 -9.36 0.10 l-2.97 0.52 -2.71 -0.33 c-2.29 -0.26 -2.90 -0.28 -4.09 -0.10 -2.97 0.44 -5.59 2.31 -6.86 4.89 -0.63 1.29 -0.65 1.34 -0.65 3.41 0 2.25 0.05 2.43 1.33 4.70 0.33 0.59 0.37 0.93 0.38 4.28 0.03 3.56 0.03 3.63 -0.42 4.59 -0.26 0.54 -0.84 1.52 -1.27 2.17 -0.45 0.65 -0.86 1.38 -0.93 1.62 -0.16 0.61 0.33 1.40 1.36 2.18 0.47 0.38 0.98 0.89 1.12 1.15 0.14 0.30 0.31 1.54 0.44 3.04 0.23 3.07 0.51 4.10 1.31 4.92 1.10 1.08 2.48 1.19 5.12 0.35 0.73 -0.23 1.40 -0.37 1.48 -0.31 0.09 0.05 0.63 0.73 1.20 1.50 2.04 2.76 3.46 6.25 3.46 8.52 0 1.47 -0.28 2.08 -1.62 3.60 -1.38 1.55 -2.11 2.69 -3.96 6.16 -3.65 6.90 -5.26 9.17 -9.88 14.01 -1.41 1.47 -2.85 3.09 -3.18 3.61 -2.04 3.20 -1.64 6.48 1.31 10.98 0.33 0.51 0.61 1.08 0.63 1.31 0 0.21 -0.09 1.80 -0.21 3.53 -0.35 4.99 0 8.75 1.55 16.85 1.03 5.27 1.08 7.14 0.37 11.79 -1.07 6.97 -1.14 7.72 -1.14 13.10 -0.02 5.54 0.05 6.37 1.07 11.26 l0.63 3.06 0.02 8.47 c0.03 9.08 0.07 9.66 1.08 15.02 1.01 5.36 1.99 8.77 6.29 21.57 3.06 9.17 3.72 11.53 4.37 15.70 0.93 6.06 1.99 8.94 4.44 12.07 0.66 0.87 1.43 1.89 1.69 2.25 l0.49 0.70 0.10 5.68 c0.16 7.37 0.37 9.24 2.25 19.40 2.24 12 2.79 16.56 2.79 22.75 0 6.34 -0.66 7.77 -5.03 10.83 -2.36 1.66 -5.17 3.37 -7.04 4.33 -2.85 1.41 -7.16 2.90 -10.90 3.72 -3.07 0.68 -3.84 0.93 -4.44 1.41 -1.22 1.05 -1.01 2.60 0.47 3.35 1.38 0.70 6.06 1.22 11.05 1.26 2.81 0.02 4.14 -0.07 7.51 -0.49z"/>
  <path d="M40.17 315.74 c-2.44 -0.16 -6.02 -0.59 -7.02 -0.87 -0.45 -0.14 -0.66 -0.30 -0.66 -0.51 0 -0.35 -0.05 -0.33 4.03 -1.31 4.77 -1.14 9.12 -2.72 12.28 -4.49 2.90 -1.62 7.53 -4.80 8.78 -6.02 0.73 -0.72 1.27 -1.45 1.62 -2.18 0.94 -2.04 1.10 -2.90 1.17 -6.86 0.16 -6.55 -0.40 -11.26 -2.83 -24.29 -1.80 -9.66 -2.01 -11.54 -2.17 -18.95 -0.09 -4.59 -0.17 -6.13 -0.37 -6.46 -0.12 -0.24 -0.93 -1.33 -1.78 -2.43 -2.90 -3.72 -3.67 -5.78 -4.77 -12.82 -0.58 -3.74 -1.54 -7.09 -4.52 -15.93 -4.33 -12.77 -5.54 -17.13 -6.60 -24.01 -0.33 -2.13 -0.38 -3.21 -0.42 -11.18 l-0.05 -8.82 -0.51 -2.44 c-1.14 -5.34 -1.17 -5.71 -1.17 -11.26 0.02 -5.43 0.09 -6.25 1.22 -13.80 0.47 -3.07 0.56 -5.80 0.26 -7.68 -0.10 -0.63 -0.49 -2.74 -0.87 -4.72 -1.41 -7.37 -1.71 -10.76 -1.38 -15.70 0.33 -4.63 0.37 -4.31 -0.66 -5.89 -0.51 -0.77 -1.20 -2.01 -1.57 -2.78 -0.63 -1.31 -0.66 -1.50 -0.66 -3.06 0 -1.55 0.03 -1.73 0.59 -2.76 0.42 -0.77 1.45 -1.99 3.28 -3.91 4.94 -5.15 6.34 -7.14 10.69 -15.26 1.34 -2.53 2.06 -3.65 2.99 -4.68 0.65 -0.77 1.41 -1.78 1.68 -2.27 1.47 -2.69 0.05 -7.96 -3.35 -12.49 -0.44 -0.59 -0.79 -1.10 -0.75 -1.14 0.03 -0.02 0.68 -0.38 1.45 -0.82 2.67 -1.50 4.09 -3.44 4.26 -5.80 0.07 -1.10 0.12 -1.22 0.54 -1.38 0.24 -0.09 0.72 -0.30 1.03 -0.45 0.35 -0.16 0.63 -0.21 0.72 -0.10 0.09 0.09 0.33 0.72 0.54 1.38 0.42 1.36 0.70 4.10 0.70 6.95 0 6.02 2.55 9.01 7.70 9.03 l1.48 0 0.58 1.43 c0.56 1.36 1.34 2.95 4.10 8.23 3.42 6.48 3.51 9.69 0.70 22.13 -1.76 7.86 -2.11 9.81 -2.86 16.59 -0.21 1.78 -0.49 3.95 -0.63 4.80 -0.21 1.29 -1.55 7.25 -1.92 8.56 -0.05 0.19 -0.17 3.06 -0.24 6.37 -0.16 6.51 -0.23 7.11 -1.64 14.41 -0.73 3.75 -2.01 10.90 -2.83 15.73 -0.31 1.94 -0.80 4.61 -1.07 5.94 -0.47 2.39 -0.47 2.51 -0.49 9.67 l-0.02 7.25 -0.47 1.66 c-1.69 6.11 -3.42 10.64 -4.37 11.51 -0.37 0.33 -0.58 0.40 -1.10 0.31 -1.14 -0.19 -1.17 -0.30 -0.77 -2.76 0.37 -2.32 0.45 -6.02 0.17 -8.63 -0.58 -5.50 -0.63 -5.75 -1.27 -5.82 -0.72 -0.09 -0.94 0.21 -1.03 1.26 -0.12 1.50 -3.09 7.16 -3.53 6.74 -0.05 -0.05 0.17 -1.19 0.51 -2.51 0.33 -1.33 0.82 -3.56 1.07 -4.96 0.52 -2.95 1.05 -4.77 2.03 -6.85 2.22 -4.75 2.86 -7.32 3.28 -12.92 0.19 -2.51 0.05 -6.36 -0.35 -9.26 -0.09 -0.63 -0.24 -2.48 -0.35 -4.14 -0.35 -5.22 0.10 -9.36 1.83 -16.31 1.55 -6.27 1.59 -7.84 0.37 -16.28 -0.80 -5.41 -1.12 -8.64 -1.33 -13.66 -0.31 -7.26 -0.93 -12.71 -1.76 -15.49 -0.49 -1.69 -1.10 -2.15 -1.82 -1.36 -0.31 0.33 -0.30 0.40 0.14 1.89 0.89 2.97 1.36 7.04 1.69 14.79 0.23 5.40 0.42 7.25 1.34 13.80 0.68 4.75 0.80 6.02 0.80 8.47 l0.02 2.88 -1.08 4.37 c-1.31 5.29 -1.71 7.63 -1.96 11.16 -0.19 2.85 -0.05 6.15 0.42 10.62 0.44 3.88 0.51 6.20 0.28 8.78 -0.42 4.98 -1 7.32 -2.74 11.14 -1.29 2.85 -1.89 4.68 -2.41 7.63 -0.26 1.40 -0.79 3.82 -1.17 5.38 -0.77 3.16 -0.77 3.81 -0.02 4.40 1.33 1.05 2.88 -0.10 4.56 -3.39 0.38 -0.75 0.73 -1.27 0.80 -1.19 0.07 0.10 0.12 1.83 0.16 3.82 0.02 3.09 -0.03 3.96 -0.37 5.80 -0.37 2.10 -0.37 2.20 -0.07 2.79 0.65 1.33 2.60 1.94 4.09 1.27 0.44 -0.19 0.96 -0.58 1.17 -0.89 1.01 -1.43 2.38 -4.99 3.95 -10.44 1.03 -3.55 1.19 -5.26 0.98 -10.53 -0.10 -2.36 -0.10 -4.80 -0.02 -5.76 0.14 -1.52 0.68 -4.77 2.90 -17.29 0.44 -2.44 0.96 -5.41 1.15 -6.58 0.21 -1.17 0.44 -2.10 0.52 -2.04 0.28 0.17 2.11 3.44 3.20 5.71 1.38 2.88 2.41 5.85 3 8.68 0.38 1.80 0.45 2.65 0.45 4.80 0 4.28 -0.65 6.51 -3.72 13.01 -1.73 3.65 -2.58 5.95 -2.99 8.03 -0.31 1.71 -0.23 7.86 0.19 13.97 0.30 4.09 0.42 7.93 0.52 16.50 0.17 13.81 0.12 13.41 3.41 23.03 2.90 8.50 3.58 11.14 3.96 15.39 0.26 2.95 0.09 5.20 -0.89 11.02 -1.38 8.17 -1.57 10.41 -1.71 19.19 -0.14 9.53 0.07 11.81 1.41 16.14 0.93 2.93 1.08 4.05 0.73 5.41 -0.49 1.90 -1.85 3.42 -3.48 3.88 -0.94 0.26 -3.30 0.24 -5.97 -0.03 -2.86 -0.30 -7.91 -0.24 -10.39 0.09 -6.02 0.84 -8.99 1.03 -12.57 0.80z m16.14 -239.12 c2.22 -2.27 2.71 -2.48 5.61 -2.48 1.80 0 2.44 0.07 3.11 0.33 0.80 0.30 0.86 0.30 1.19 0 0.45 -0.40 0.42 -1.05 -0.07 -1.36 -1.14 -0.75 -4.89 -1.05 -6.85 -0.54 -1.41 0.38 -2.36 1.03 -4.16 2.85 -1.54 1.57 -1.80 2.13 -1.31 2.62 0.45 0.45 0.93 0.17 2.48 -1.41z"/>
  <path d="M64.26 65.78 c-0.05 -0.05 -0.72 -0.10 -1.48 -0.14 -1.71 -0.03 -2.58 -0.38 -3.44 -1.34 -1.43 -1.59 -1.71 -2.62 -1.78 -6.81 -0.09 -4.30 -0.56 -6.71 -1.78 -9.03 -1.99 -3.77 -3.37 -5.20 -8.05 -8.33 -2.51 -1.69 -4.63 -3.58 -5.33 -4.77 -0.28 -0.47 -0.66 -1.12 -0.84 -1.40 -0.49 -0.77 -0.87 -2.44 -0.87 -3.77 0 -1.41 -0.37 -2.03 -1.10 -1.85 -0.56 0.16 -1.50 1.62 -2.15 3.39 -0.54 1.47 -0.72 1.41 -0.89 -0.17 -0.17 -1.75 0.87 -4.49 1.78 -4.63 0.19 -0.03 0.47 -0.30 0.61 -0.61 0.19 -0.42 0.59 -0.73 1.57 -1.22 l1.31 -0.66 3.06 0.12 c5.41 0.21 6.41 0.17 8.03 -0.24 1.20 -0.30 2.04 -0.38 4.37 -0.40 2.86 -0.03 3.55 0.03 4.37 0.47 0.24 0.12 1.08 0.47 1.89 0.77 2.99 1.17 6.44 4.58 7.95 7.86 0.86 1.85 1.57 4.68 1.59 6.20 0.02 2.22 -0.79 7.47 -1.29 8.56 -0.37 0.77 -0.51 2.10 -0.52 4.82 -0.02 2.44 0.03 3.06 0.35 4.17 0.21 0.72 0.52 1.54 0.68 1.83 0.17 0.28 0.37 0.73 0.44 1 0.05 0.26 0.35 0.86 0.63 1.31 0.84 1.34 1.10 2.01 1.12 2.85 0.02 0.75 0 0.79 -0.51 0.84 -0.28 0.03 -1.10 -0.03 -1.80 -0.16 -1.55 -0.26 -3.09 -0.03 -5.12 0.73 -1.34 0.51 -2.62 0.79 -2.78 0.63z m0 -0.73 c0 -0.42 -0.03 -0.44 -1.31 -0.44 -1.14 0 -1.31 0.03 -1.31 0.31 0 0.26 0.17 0.31 1 0.35 0.54 0.02 1.03 0.09 1.08 0.12 0.23 0.24 0.54 0.03 0.54 -0.35z m3.04 -13.59 c0.07 -0.33 0.05 -0.45 -0.07 -0.38 -0.09 0.05 -0.17 0.31 -0.17 0.56 0 0.56 0.09 0.49 0.24 -0.17z m-2.01 -3.89 c0.03 -0.03 -0.17 -0.07 -0.47 -0.07 -0.31 0 -0.56 0.09 -0.56 0.17 0 0.16 0.82 0.07 1.03 -0.10z m1.40 -4.21 c-0.02 -0.38 -0.03 -0.40 -0.10 -0.14 -0.05 0.19 -0.17 0.40 -0.30 0.47 -0.12 0.09 -0.09 0.14 0.12 0.14 0.21 0 0.30 -0.12 0.28 -0.47z m-1.90 -2.36 c0 -0.09 -0.12 -0.14 -0.26 -0.14 -0.17 0 -0.26 0.17 -0.26 0.58 l0.02 0.56 0.24 -0.44 c0.14 -0.24 0.24 -0.49 0.26 -0.56z m-2.55 -0.75 c-0.07 -0.14 -0.17 -0.26 -0.26 -0.26 -0.09 0 -0.16 0.12 -0.16 0.26 0 0.14 0.12 0.26 0.26 0.26 0.16 0 0.21 -0.10 0.16 -0.26z m1.68 -0.96 c0 -0.66 -0.05 -1.22 -0.12 -1.22 -0.09 0 -0.12 0.51 -0.09 1.12 0.05 0.96 0.02 1.14 -0.26 1.20 -0.24 0.07 -0.24 0.09 0.09 0.10 0.37 0.02 0.38 -0.05 0.38 -1.20z m6.53 -4.75 c0.10 -0.07 0.40 -0.14 0.68 -0.14 0.26 0 0.47 -0.07 0.47 -0.17 0 -0.09 -0.35 -0.17 -0.79 -0.17 l-0.79 0 0.02 0.75 c0.02 0.47 0.05 0.58 0.10 0.30 0.05 -0.24 0.17 -0.49 0.30 -0.56z"/>
  <path d="M39.76 58.66 c-0.56 -0.33 -0.80 -1.24 -1 -3.75 -0.28 -3.41 -0.45 -3.95 -1.75 -5.22 -0.58 -0.58 -1.05 -1.10 -1.05 -1.19 0 -0.09 0.26 -0.52 0.59 -0.98 0.77 -1.05 1.40 -2.34 1.66 -3.39 0.14 -0.56 0.19 -2.39 0.17 -5.33 0 -2.48 0.03 -4.72 0.10 -5.01 0.23 -1 0.47 -1.66 0.59 -1.66 0.07 0 0.23 0.42 0.35 0.93 0.31 1.26 1.24 2.97 2.31 4.28 1.10 1.33 2.62 2.57 5.83 4.75 1.34 0.91 3 2.20 3.68 2.88 1.19 1.19 2.34 2.88 2.34 3.46 0 0.37 -0.51 0.63 -1.47 0.75 -0.44 0.07 -0.91 0.24 -1.03 0.40 -0.16 0.16 -0.30 0.87 -0.35 1.71 -0.14 1.76 -0.59 2.83 -1.73 3.89 -1.05 1.01 -3.39 2.25 -5.76 3.06 -1.87 0.63 -2.93 0.75 -3.51 0.42z"/>
 </g>
</svg>